<?xml version="1.0" encoding="UTF-8" standalone="no"?>

<svg
   version="1.1"
   id="svg34"
   x="0px"
   y="0px"
   viewBox="0 0 5000 5000"
   style="enable-background:new 0 0 5000 5000;"
   xml:space="preserve"
   sodipodi:docname="LFortran logo.svg"
   inkscape:version="1.1 (c4e8f9e, 2021-05-24)"
   xmlns:inkscape="http://www.inkscape.org/namespaces/inkscape"
   xmlns:sodipodi="http://sodipodi.sourceforge.net/DTD/sodipodi-0.dtd"
   xmlns="http://www.w3.org/2000/svg"
   xmlns:svg="http://www.w3.org/2000/svg"><defs
   id="defs73" />
<style
   type="text/css"
   id="style58">
	.st0{fill:#3E3E3E;}
	.st1{fill:#FFFFFF;}
	.st2{fill:#D54027;}
</style>
<sodipodi:namedview
   bordercolor="#666666"
   borderopacity="1"
   gridtolerance="10"
   guidetolerance="10"
   id="namedview36"
   inkscape:current-layer="layer1"
   inkscape:cx="2667.067"
   inkscape:cy="2411.4903"
   inkscape:document-rotation="0"
   inkscape:pageopacity="0"
   inkscape:pageshadow="2"
   inkscape:window-height="779"
   inkscape:window-maximized="0"
   inkscape:window-width="1440"
   inkscape:window-x="-1"
   inkscape:window-y="25"
   inkscape:zoom="0.12129429"
   objecttolerance="10"
   pagecolor="#ffffff"
   showgrid="false"
   inkscape:pagecheckerboard="0">
	</sodipodi:namedview>
<g
   id="Layer_2_1_">
	<path
   id="path15"
   class="st0"
   d="m 1776.9,1479.3 c 0,0 -302,-98.7 -301,-396.7 122.5,76.9 275.7,237 490,241.5 -59.2,-41.2 -267.8,-190.4 -298,-293.6 82.6,50.1 120.5,86.8 147.3,143.8 15.9,-49.1 4.5,-76.9 -23.3,-112.6 54.6,8.4 130.8,88 162.2,135.4 1.5,-56.5 -7.6,-70.4 -30.3,-102.7 94.5,26.3 142.2,91 185,160.2 9.4,-51 -3.5,-90.8 -29.3,-129.4 75.3,19 125.6,73.5 157.8,138 14.4,-61 2.4,-76.3 -18.5,-113.2 51.6,11.7 99.2,47.6 133.4,122 15.4,-58 3.4,-76.8 -15.6,-113.3 52.8,8.2 97.4,50.8 124.7,109.3 11.9,-33.3 15.2,-67.4 -2.4,-93.9 37.9,5.2 81.3,48.5 115.4,73.1 -27.8,-145.8 -513.8,-516.7 -939.3,-503.8 -21.2,0.6 -74.8,-27.3 -105.1,-41.7 -94.8,-44.9 -200.1,-145.5 -251.9,-249.9 -31.7,126 91.2,257.9 179.5,314.4 -95.2,14.9 -244,-109.1 -287.6,-284.7 -53.6,175.6 75.2,316.9 151.6,346.6 -41.7,25.8 -65.8,50.9 -65.8,50.9 L 1090.8119,822.20965 1197.7,949.9 c -29.1,46 -33.5785,59.014 -40.1785,109.214 l -172.91075,23.7817 164.61075,63.4581 c 0.5,40.5 1.9785,86.1462 6.8785,130.0462 0,0 0,0 -141.1183,85.9204 165.4613,-1.1559 0,0 165.4613,-1.1559 C 1207.843,1423.2645 1292,1540 1292,1540 Z"
   sodipodi:nodetypes="cccccccccccccccccccccccccccccccccc" />
	<path
   id="path17"
   class="st1"
   d="m 1609.8,884 c 179.3,26.4 0,0 179.3,26.4 -36.8,-11.9 -170,-72.5 -186,-85.2 z"
   sodipodi:nodetypes="cccc" />
	<path
   id="path18"
   sodipodi:nodetypes="cccccc"
   class="st0"
   d="M2764,4395.7c169.9-43.8,255-177.2,350.8-346.6   c13.8,10.3,39.8,101.5,93.6,196.4c-19-91.9-48.7-190.7-54.1-301.9c-100.3,98.1-158.9,227.1-382.8,356.3   C2756.1,4335.3,2764,4395.7,2764,4395.7L2764,4395.7z" />
	<path
   id="path20"
   sodipodi:nodetypes="cccccc"
   class="st0"
   d="M 2738.9101,4210.0584 C 2925.1573,4215.4742 3042,4067.8 3070.3,4024.5 c -20,-5.4 -206.1,39.7 -255.5,37.7 134.9,-42.9 290.7,-93.9 339.6,-118.6 -25.8,58.4 -163.7,263.5 -382.6,356.2 -21.5,-19.7 -32.8899,-89.7416 -32.8899,-89.7416 z" />
</g>
<g
   id="F_symbol">
	<path
   id="path24"
   class="st2"
   d="M2859.4,1782.6c18.6,1.4,224.1,6.7,250.2,10c35.5,3.4,88.5,5.6,161.9,19.9   c35.1,6.8,59.5,9.8,101.9,36.2c143.6,89.4,177.6,199.4,217.8,327.1c32.2,102.2,45.1,201.7,56.5,295.1   c13.4,109.1,18,208.6,26.2,261.4c24,0,342.7,3.1,342.7,3.1s0-1185.3,0-1289.3c-97.6,0-2884.3,0.4-2884.3,0.4v336.2   c0,0,267.5,4.1,290.4,6c117.1,9.5,156.3,49.7,171.1,95.4c2.4,30.3,21.7,2018.7,9.3,2066.7c-0.5,12.5,0.2,59.2-9,116.9   c-14.3,111.3-106.6,113.4-129.5,117.6c-37.1,6.8-332.3,26.9-332.3,26.9v336.2h1661.4v-339.6c0,0-217-10.2-273.6-13.2   c-20.9-1.1-107.4-12-148.4-23.1c-46.5-12.5-92.1-46.2-97.2-166.6c-6.4-151.8-15-917.8-15-917.8s133.8,10.1,240.8,26.3   c55.1,8.4,100.5,21.7,122,29.5c63.6,23,124.7,64.3,154.7,174.4c32.2,118,47.2,186.8,55.6,281.9c5.1,29.3,3.9,110.5,3.9,127.3   c22.1,0,342.8,0.1,342.8,0.1V2191.2h-332.9c0,0-11.1,91.7-29.6,201.4c-25.5,150.8-79,276.4-188,316.3c-61.8,22.6-199.8,34.1-254,40   c-73.1,0-108.8-0.2-111.8-0.3c0.1-4.4,0-965.8,0-965.8h596.4V1782.6z" />
</g>
<g
   id="Dragon_body_and_hand">
	<path
   id="path27"
   class="st0"
   d="m 2913.7011,1466.5326 76.2304,152.9033 4.3742,-145.209 114.2583,188.6752 -15.2414,-171.4885 183.4268,170.1334 -197.891,-322.8875 L 2827.5,1447"
   sodipodi:nodetypes="cccccccc" />
	<path
   id="path29"
   class="st0"
   d="M2262.8,1875.6c248.5,85,382.1,453-31.6,691.3c-413.7,238.3-633.5,221.4-626.4,508.1   c-181.1-135.9-229.8-408.6-118.9-599.7C1692.6,2141.9,2270.1,2212.8,2262.8,1875.6z" />
	<path
   id="path31"
   class="st0"
   d="M2259.5,3100.6c188.9,95,324.5,472.9-6.2,682.6c-357.8,226.8-518.5,33.5-674,335   c-143.4-166.4-127.8-456.7,42.8-590.3C1872.1,3332,2266.8,3437.7,2259.5,3100.6z" />
</g>
<g
   inkscape:groupmode="layer"
   id="layer1"
   inkscape:label="Layer 1" /></svg>
